<svg width="98" height="45" viewBox="0 0 98 45" fill="none" xmlns="http://www.w3.org/2000/svg">
<path fill-rule="evenodd" clip-rule="evenodd"
d="M28.5292 3.27627L25.1721 0.737305L19.097 8.76995L22.4541 11.3089L28.5292 3.27627Z M17.8306 1.54712L13.9257 1.29336L13.4879 8.02929L17.3928 8.28306L17.8306 1.54712Z M29.8953 9.45254L31.3575 12.8587L25.0166 15.5807L23.5544 12.1746L29.8953 9.45254Z
M17.8333 23.0738C19.4292 23.4341 20.6905 24.2321 21.6171 25.4676C22.5695 26.6774 23.0457 28.0673 23.0457 29.6375C23.0457 31.9541 22.2477 33.7688 20.6519 35.0815C19.056 36.3943 16.8166 37.0506 13.9337 37.0506H0.458735V9.83047H13.509C16.2889 9.83047 18.4639 10.4482 20.0341 11.6838C21.63 12.9193 22.4279 14.6567 22.4279 16.8961C22.4279 18.492 22.0032 19.8305 21.1538 20.9116C20.3301 21.9669 19.2233 22.6877 17.8333 23.0738Z
M8.02633 20.6413H11.8487C13.7535 20.6413 14.7059 19.8562 14.7059 18.2861C14.7059 16.6645 13.7535 15.8537 11.8487 15.8537H8.02633V20.6413Z
M12.4279 30.9502C14.3327 30.9502 15.285 30.1523 15.285 28.5564C15.285 27.7327 15.0276 27.1021 14.5128 26.6645C14.0238 26.2269 13.3159 26.0081 12.3893 26.0081H8.02633V30.9502H12.4279Z
M45.4425 17.282V36.8761H38.5618V34.082C37.9797 34.9668 37.1764 35.6886 36.1519 36.2474C35.1273 36.783 33.9514 37.0508 32.6242 37.0508C30.3423 37.0508 28.5377 36.3057 27.2105 34.8154C25.9065 33.3019 25.2546 31.2529 25.2546 28.6682V17.282H32.0654V27.7951C32.0654 28.9127 32.3564 29.7976 32.9385 30.4495C33.544 31.0782 34.3356 31.3926 35.3136 31.3926C36.3148 31.3926 37.1065 31.0782 37.6887 30.4495C38.2708 29.7976 38.5618 28.9127 38.5618 27.7951V17.282H45.4425Z
M55.835 31.183H64.1826V36.8761H48.2907V31.4624L56.0795 22.9751H48.3606V17.282H63.9032V22.6957L55.835 31.183Z
M74.589 20.7398C75.3574 19.6221 76.2888 18.7373 77.3832 18.0853C78.4776 17.4333 79.6534 17.1073 80.9108 17.1073V24.4071H78.9898C77.4996 24.4071 76.3936 24.6982 75.6717 25.2803C74.9499 25.8624 74.589 26.8753 74.589 28.319V36.8761H67.7433V17.282H74.589V20.7398Z
M88.589 20.7398C89.3574 19.6221 90.2888 18.7373 91.3832 18.0853C92.4776 17.4333 93.6534 17.1073 94.9108 17.1073V24.4071H92.9898C91.4996 24.4071 90.3936 24.6982 89.6717 25.2803C88.9499 25.8624 88.589 26.8753 88.589 28.319V36.8761H81.7433V17.282H88.589V20.7398Z
"
fill="#A589FC"/>
</svg>
